<svg width="24" height="24" viewBox="0 0 24 24" fill="none" xmlns="http://www.w3.org/2000/svg">
<g clip-path="url(#clip0_504_974)">
<g clip-path="url(#clip1_504_974)">
<path d="M2.34639 12C1.35015 10.8096 0.75 9.27309 0.75 7.59575C0.75 3.81494 3.79914 0.75 7.56044 0.75C9.26275 0.75 10.8192 1.37783 12.0132 2.41569C13.2043 1.37783 14.7571 0.75 16.4555 0.75C20.208 0.75 23.25 3.81494 23.25 7.59575C23.25 9.27309 22.6512 10.8096 21.6574 12C22.6512 13.1904 23.25 14.7269 23.25 16.4042C23.25 20.1851 20.208 23.25 16.4555 23.25C14.7571 23.25 13.2043 22.6222 12.0132 21.5843C10.8192 22.6222 9.26275 23.25 7.56044 23.25C3.79914 23.25 0.75 20.1851 0.75 16.4042C0.75 14.7269 1.35015 13.1904 2.34639 12Z" fill="#4F666D"/>
</g>
</g>
<defs>
<clipPath id="clip0_504_974">
<rect width="24" height="24" fill="white"/>
</clipPath>
<clipPath id="clip1_504_974">
<rect width="22.5" height="22.5" fill="white" transform="translate(0.75 0.75)"/>
</clipPath>
</defs>
</svg>
